<?xml version="1.0" standalone="no"?>
<!DOCTYPE svg PUBLIC "-//W3C//DTD SVG 20010904//EN"
 "http://www.w3.org/TR/2001/REC-SVG-20010904/DTD/svg10.dtd">
<svg version="1.0" xmlns="http://www.w3.org/2000/svg"
 width="512.000000pt" height="512.000000pt" viewBox="0 0 512.000000 512.000000"
 preserveAspectRatio="xMidYMid meet">

<g transform="translate(0.000000,512.000000) scale(0.100000,-0.100000)"
fill="#000000" stroke="none">
<path d="M1983 4950 c-44 -18 -63 -67 -63 -162 l0 -88 -86 0 c-84 0 -87 -1
-120 -34 l-34 -34 0 -261 c0 -237 2 -265 20 -315 36 -95 125 -177 225 -206 36
-11 45 -19 75 -78 52 -103 172 -218 280 -270 106 -50 168 -64 278 -64 183 0
317 56 448 187 53 53 91 102 114 147 30 59 39 67 75 78 100 29 189 111 225
206 18 50 20 78 20 315 l0 261 -34 34 c-33 33 -36 34 -120 34 l-86 0 0 88 c0
98 -19 145 -66 162 -32 13 -1120 12 -1151 0z m595 -373 c6 -7 23 -51 38 -97
14 -47 28 -87 31 -90 2 -3 53 -7 111 -10 98 -5 107 -7 110 -25 2 -16 -16 -35
-78 -78 -44 -32 -80 -63 -80 -70 0 -7 12 -51 26 -99 26 -86 27 -118 2 -118 -8
0 -47 25 -88 55 -41 30 -81 55 -88 55 -8 0 -48 -25 -90 -55 -42 -30 -82 -55
-89 -55 -26 0 -25 32 1 118 14 48 26 92 26 99 0 7 -36 38 -80 70 -60 43 -80
63 -78 78 3 18 13 20 110 25 58 3 109 7 111 10 3 3 17 43 31 90 26 82 40 110
56 110 4 0 12 -6 18 -13z m-656 -297 c3 -276 3 -279 -17 -266 -11 7 -33 30
-50 50 l-30 38 -3 229 -3 229 50 0 50 0 3 -280z m1376 51 l-3 -229 -30 -38
c-17 -20 -39 -43 -50 -50 -20 -13 -20 -10 -17 266 l3 280 50 0 50 0 -3 -229z"/>
<path d="M2370 3151 l0 -159 -172 -4 c-188 -4 -212 -10 -236 -64 -23 -48 -15
-93 22 -130 l34 -34 534 0 c511 0 534 1 565 20 65 39 64 143 -3 187 -24 15
-54 18 -201 21 l-173 4 0 159 0 159 -72 -7 c-92 -10 -124 -10 -220 0 l-78 8 0
-160z"/>
<path d="M1866 2450 c-38 -12 -75 -47 -92 -87 -12 -27 -14 -221 -14 -1118 l0
-1085 800 0 800 0 -2 1099 c-3 1093 -3 1100 -24 1127 -11 15 -33 37 -48 48
-27 21 -38 21 -709 23 -375 1 -695 -2 -711 -7z m747 -762 c15 -18 17 -50 17
-334 l0 -314 48 0 c63 0 92 -21 92 -66 0 -21 -8 -42 -20 -54 -18 -18 -33 -20
-190 -20 -157 0 -172 2 -190 20 -12 12 -20 33 -20 54 0 45 29 66 92 66 l48 0
0 214 0 215 -31 -11 c-42 -14 -83 14 -87 62 -3 29 5 41 70 107 40 41 82 79 93
83 27 11 56 3 78 -22z"/>
<path d="M229 1747 c-72 -48 -69 -8 -69 -824 0 -652 2 -733 16 -747 14 -14 94
-16 730 -16 l714 0 0 805 0 805 -679 0 -678 0 -34 -23z m872 -414 c113 -63
147 -187 84 -302 -17 -30 -57 -79 -89 -110 -125 -117 -206 -200 -206 -210 0
-7 48 -11 145 -11 132 0 147 -2 165 -20 25 -25 26 -61 1 -91 -19 -24 -20 -24
-241 -24 -221 0 -222 0 -241 24 -26 32 -24 53 11 125 44 89 106 163 214 255
143 123 170 200 86 244 -43 22 -121 18 -150 -8 -11 -10 -23 -36 -27 -58 -11
-71 -65 -98 -114 -58 -43 35 -25 144 35 209 46 51 109 72 202 68 58 -2 83 -9
125 -33z"/>
<path d="M3500 765 l0 -605 714 0 c636 0 716 2 730 16 14 14 16 77 16 547 0
593 2 577 -69 624 l-34 23 -678 0 -679 0 0 -605z m833 372 c61 -46 77 -90 77
-204 -1 -74 -5 -106 -19 -132 -17 -32 -17 -35 1 -69 14 -28 18 -59 18 -137 0
-94 -2 -104 -29 -147 -48 -76 -87 -88 -274 -88 -144 0 -159 2 -177 20 -11 11
-20 33 -20 50 0 17 9 39 20 50 18 18 33 20 161 20 77 0 149 5 160 10 16 9 19
22 19 82 0 107 -1 108 -178 108 -164 0 -182 7 -182 66 0 23 7 38 26 53 24 19
40 21 168 21 97 0 146 4 154 12 16 16 16 152 -1 166 -7 6 -77 12 -159 14 -127
3 -149 6 -167 22 -26 23 -28 72 -4 98 16 18 31 19 193 16 176 -3 177 -3 213
-31z"/>
</g>
</svg>
