<?xml version="1.0" standalone="no"?>
<!DOCTYPE svg PUBLIC "-//W3C//DTD SVG 20010904//EN"
 "http://www.w3.org/TR/2001/REC-SVG-20010904/DTD/svg10.dtd">
<svg version="1.0" xmlns="http://www.w3.org/2000/svg"
 width="64.000000pt" height="64.000000pt" viewBox="0 0 64.000000 64.000000"
 preserveAspectRatio="xMidYMid meet">

<g transform="translate(0.000000,64.000000) scale(0.100000,-0.100000)"
fill="#000000" stroke="none">
<path d="M223 609 c-66 -19 -123 -102 -123 -179 0 -14 9 -44 19 -66 49 -107
190 -138 278 -61 63 56 80 134 44 212 -38 84 -125 121 -218 94z"/>
<path d="M106 246 c-77 -46 -113 -159 -66 -206 19 -19 33 -20 207 -20 168 0
185 2 166 15 -30 21 -56 92 -48 132 3 18 17 46 32 63 14 17 23 34 19 37 -4 4
-28 -1 -54 -10 -58 -21 -111 -22 -159 -2 -46 20 -51 19 -97 -9z"/>
<path d="M438 242 c-124 -76 -15 -269 116 -207 44 21 66 59 66 116 0 33 -6 47
-34 75 -28 28 -41 34 -77 34 -24 0 -56 -8 -71 -18z m92 -37 c4 -24 11 -31 35
-35 24 -4 30 -10 30 -30 0 -21 -5 -26 -32 -28 -29 -3 -33 -7 -33 -33 0 -33
-22 -48 -45 -29 -8 7 -15 23 -15 36 0 19 -5 24 -24 24 -13 0 -29 7 -36 15 -19
23 -4 45 30 45 23 0 30 4 30 19 0 35 12 52 34 49 14 -2 22 -12 26 -33z"/>
</g>
</svg>
