<svg width="150" height="40" xmlns="http://www.w3.org/2000/svg">

 <g>
  <title>Layer 1</title>
  <g id="svg_1" transform="matrix(0.179448 0 0 0.239165 -31.2068 -83.6697)">
   <g id="svg_2" transform="matrix(0.1 0 0 -0.1 0 1200)">
    <path id="svg_3" fill-rule="nonzero" fill="#000000" d="m3616.24128,7656.78869c0,-553 3,-840 10,-840c7,0 10,287 10,840c0,553 -3,840 -10,840c-7,0 -10,-287 -10,-840z"/>
    <path id="svg_4" fill-rule="nonzero" fill="#000000" d="m2681.24128,8150.78869c-11,-3 -59,-12 -108,-21c-48,-8 -89,-19 -92,-22c-7,-12 8,-26 164,-144c120,-92 160,-117 185,-117c39,0 278,79 274,91c-2,4 -70,56 -152,114c-144,101 -151,105 -200,104c-28,-1 -60,-3 -71,-5zm141,-48c17,-13 17,-15 2,-21c-15,-6 -78,19 -78,30c0,11 58,4 76,-9zm-85,-15c13,-11 21,-23 16,-27c-9,-9 -77,22 -77,36c0,17 36,11 61,-9zm-73,-17c29,-20 18,-38 -21,-30c-32,6 -57,23 -57,37c0,15 54,10 78,-7zm333,-94c24,-19 24,-19 3,-20c-12,0 -32,9 -45,20c-24,19 -24,19 -3,20c12,0 32,-9 45,-20zm-60,-20l24,-19l-23,-1c-28,0 -62,17 -62,30c0,17 37,11 61,-10zm-92,-11c42,-15 41,-39 -3,-39c-35,0 -63,21 -51,40c8,13 14,13 54,-1z"/>
    <path id="svg_5" fill-rule="nonzero" fill="#000000" d="m6774.24128,8014.78869c-3,-82 -3,-83 -30,-86c-27,-3 -28,-5 -28,-68l0,0l0,-64l30,0l30,0l0,-137c0,-117 3,-143 20,-179c26,-52 68,-74 142,-73c49,0 160,27 161,39c0,3 -6,35 -13,71l0,0l-13,67l-51,-2l-51,-1l-3,108l-3,107l51,0l50,0l0,65l0,65l-50,0l-50,0l0,85l0,85l-95,0l-94,0l-3,-82z"/>
    <path id="svg_6" fill-rule="nonzero" fill="#000000" d="m4756.24128,8006.78869l0,-80l-30,0l-30,0l0,-70l0,-70l29,0l28,0l5,-142c5,-159 16,-196 68,-223c58,-30 270,-6 257,30c-3,7 -11,40 -17,73l0,0l-12,59l-39,-10c-61,-15 -69,-3 -69,114l0,0l0,99l50,0l50,0l0,70l0,70l-50,0l-50,0l0,80l0,80l-95,0l-95,0l0,-80z"/>
    <path id="svg_7" fill-rule="nonzero" fill="#000000" d="m2438.24128,8054.78869c-5,-7 -21,-55 -34,-105l0,0l-25,-93l72,0c61,0 74,-3 93,-22c11,-13 27,-29 36,-35c8,-7 31,-83 52,-172l0,0l38,-160l41,117c23,64 49,134 58,156c24,56 21,75 -19,113c-52,49 -275,213 -289,213c-7,0 -17,-6 -23,-12zm224,-263c19,-29 12,-55 -14,-55c-24,0 -42,19 -42,45c0,42 31,48 56,10z"/>
    <path id="svg_8" fill-rule="nonzero" fill="#000000" d="m8500.24128,7936.78869c-70,-13 -144,-46 -144,-65c0,-12 33,-89 44,-102c1,-1 24,9 51,22c35,18 65,25 106,25c50,0 60,-3 78,-26c35,-45 29,-49 -76,-49c-76,0 -107,-4 -136,-19c-89,-44 -122,-147 -74,-229c60,-101 202,-113 303,-25c23,20 34,25 34,15c0,-8 9,-26 20,-40c24,-30 73,-42 125,-33l0,0l35,7l0,75c0,54 -4,80 -15,90c-11,11 -15,38 -15,97c0,45 -5,99 -11,120c-13,49 -60,101 -107,120c-49,20 -155,28 -218,17zm140,-296c23,-9 20,-50 -5,-72c-39,-38 -118,-35 -133,3c-9,26 -8,33 14,55c20,20 88,28 124,14z"/>
    <path id="svg_9" fill-rule="nonzero" fill="#000000" d="m9241.24128,7941.78869c-5,-2 -22,-6 -37,-9c-15,-4 -43,-20 -63,-37l0,0l-35,-31l0,36l0,36l-80,0l-80,0l0,-365l0,-365l90,0l90,0l0,142l0,142l28,-27c100,-96 251,-64 320,66c24,46 27,63 27,147c0,74 -4,103 -19,130c-25,48 -64,88 -106,110c-35,18 -115,33 -135,25zm38,-175c76,-60 38,-200 -54,-200c-30,0 -43,7 -68,35c-26,30 -31,44 -31,86c0,41 5,54 26,74c34,32 91,33 127,5z"/>
    <path id="svg_10" fill-rule="nonzero" fill="#000000" d="m9692.24128,7932.78869c-86,-32 -129,-88 -130,-168c-1,-44 3,-53 35,-82c23,-22 65,-43 120,-61c93,-30 115,-45 105,-71c-9,-24 -80,-14 -152,21c-31,15 -59,23 -63,19c-5,-5 -19,-29 -32,-53l0,0l-24,-43l30,-24c61,-49 187,-73 279,-54c102,21 159,100 142,194c-10,52 -62,91 -160,122c-105,32 -126,45 -107,68c19,23 58,20 119,-9c30,-14 55,-25 57,-25c2,0 17,23 35,51c36,59 33,67 -41,98c-65,29 -162,36 -213,17z"/>
    <path id="svg_11" fill-rule="nonzero" fill="#000000" d="m4317.24128,7909.78869c-41,-21 -60,-39 -79,-73c-47,-89 -14,-165 89,-203c24,-9 70,-26 102,-38c41,-15 57,-26 57,-39c0,-39 -77,-32 -170,15l0,0l-46,23l-28,-49c-15,-28 -25,-56 -23,-63c3,-8 31,-26 62,-42c68,-33 188,-44 259,-24c117,32 164,171 85,250c-22,21 -58,38 -130,61c-103,32 -127,51 -94,75c22,17 67,9 124,-22c24,-14 45,-23 46,-22c1,2 16,25 33,53c35,56 33,64 -32,97c-28,15 -66,23 -121,26c-73,4 -85,1 -134,-25z"/>
    <path id="svg_12" fill-rule="nonzero" fill="#000000" d="m5401.24128,7921.78869c-16,-8 -45,-32 -62,-52l0,0l-33,-36l0,46l0,47l-85,0l-85,0l0,-255l0,-255l95,0l95,0l0,155c0,153 0,155 24,170c14,9 50,19 80,22l0,0l56,6l0,83l0,84l-27,0c-16,0 -41,-7 -58,-15z"/>
    <path id="svg_13" fill-rule="nonzero" fill="#000000" d="m5703.24128,7922.78869c-113,-41 -168,-114 -175,-236c-5,-94 7,-134 58,-193c60,-68 122,-90 235,-85c77,3 98,8 138,31c42,25 106,92 96,101c-2,2 -36,13 -75,24l0,0l-70,19l-28,-23c-38,-34 -108,-33 -141,1c-14,13 -25,31 -25,40c0,13 25,15 185,15l0,0l185,0l0,43c0,121 -76,230 -181,261c-64,19 -151,20 -202,2zm138,-122c14,-6 45,-53 45,-69c0,-3 -38,-5 -85,-5c-95,0 -106,10 -60,55c24,25 65,32 100,19z"/>
    <path id="svg_14" fill-rule="nonzero" fill="#000000" d="m6271.24128,7913.78869c-96,-47 -144,-127 -145,-240c0,-154 94,-253 251,-265c98,-7 169,17 233,79c58,56 58,57 -39,84c-62,16 -64,16 -84,-4c-44,-44 -137,-35 -160,15c-6,14 -11,27 -11,29c0,3 82,6 183,7l0,0l182,3l-1,66c-2,73 -24,128 -73,176c-50,51 -97,67 -196,71c-78,2 -96,0 -140,-21zm194,-133c37,-48 30,-54 -64,-54c-94,0 -101,6 -64,54c16,21 29,26 64,26c35,0 48,-5 64,-26z"/>
    <path id="svg_15" fill-rule="nonzero" fill="#000000" d="m7517.24128,7919.78869c-101,-36 -168,-149 -159,-267c13,-157 138,-256 307,-244c79,6 134,32 184,87c20,23 37,43 37,46c0,2 -37,16 -82,29l0,0l-82,26l-41,-20c-77,-37 -135,8 -135,105c0,84 81,134 141,86c24,-18 26,-18 112,7c48,14 87,28 87,32c0,19 -68,82 -112,104c-44,22 -65,26 -132,25c-46,0 -100,-7 -125,-16z"/>
    <path id="svg_16" fill-rule="nonzero" fill="#000000" d="m8200.24128,7917.78869c-17,-10 -43,-34 -57,-52l0,0l-27,-34l0,48l0,47l-85,0l-85,0l0,-255l0,-255l95,0l95,0l0,153c0,180 1,181 99,199l0,0l61,12l0,78l0,78l-32,0c-18,0 -47,-9 -64,-19z"/>
    <path id="svg_17" fill-rule="nonzero" fill="#000000" d="m2969.24128,7863.78869c-67,-23 -129,-49 -137,-57c-13,-14 -146,-351 -146,-371c0,-16 18,-10 144,51c75,35 131,69 140,83c25,37 136,298 136,319c0,23 7,24 -137,-25zm-33,-155c0,-16 -32,-52 -46,-52c-20,0 -18,16 6,40c20,20 40,26 40,12z"/>
    <path id="svg_18" fill-rule="nonzero" fill="#000000" d="m2126.24128,7823.78869c-155,-85 -316,-182 -324,-195c-8,-13 275,-56 327,-50c29,4 76,26 152,73c153,94 238,156 228,165c-4,5 -87,11 -183,15c-141,5 -180,4 -200,-8zm270,-47c0,-12 -78,-35 -88,-26c-4,4 2,14 12,22c22,16 76,19 76,4zm-200,-55c-20,-19 -80,-32 -80,-16c0,14 36,29 70,30c21,1 23,-1 10,-14zm-185,-45c-8,-14 -84,-35 -93,-26c-4,4 2,14 12,22c22,16 91,20 81,4z"/>
    <path id="svg_19" fill-rule="nonzero" fill="#000000" d="m2359.24128,7675.78869c-167,-112 -182,-128 -170,-182c2,-12 33,-115 67,-229c59,-192 65,-208 86,-208c23,0 222,158 293,234l0,0l35,36l-49,207c-57,246 -59,253 -82,252c-10,0 -91,-49 -180,-110zm155,-1c17,-17 15,-77 -3,-84c-22,-9 -45,14 -45,45c0,25 15,51 30,51c3,0 11,-5 18,-12zm-166,-143c17,-38 -4,-77 -40,-73c-21,2 -28,9 -30,31c-4,30 21,67 45,67c7,0 19,-11 25,-25zm142,-73c7,-26 6,-36 -8,-50c-22,-22 -50,-5 -54,32c-7,59 46,74 62,18zm112,-57c19,-29 10,-65 -16,-65c-22,0 -34,31 -26,66c8,31 21,31 42,-1zm-156,-126c24,-44 -30,-108 -65,-79c-19,16 -19,50 1,78c19,28 50,28 64,1z"/>
    <path id="svg_20" fill-rule="nonzero" fill="#000000" d="m1790.24128,7571.78869c-7,-18 124,-405 145,-427c16,-16 297,-108 332,-108c11,0 19,7 19,18c0,27 -129,434 -145,459c-17,26 -19,26 -185,53c-149,24 -159,24 -166,5zm143,-110c13,-27 14,-38 5,-47c-16,-16 -62,27 -62,59c0,38 37,30 57,-12zm163,-15c11,-11 20,-24 20,-29c0,-5 3,-16 6,-25c5,-12 0,-16 -20,-16c-18,0 -30,8 -41,31c-27,52 -4,78 35,39zm-98,-207c22,-19 24,-63 4,-63c-17,0 -56,46 -56,66c0,19 30,17 52,-3zm187,-49c25,-32 27,-52 4,-61c-21,-8 -53,30 -53,63c0,32 23,31 49,-2z"/>
   </g>
  </g>
 </g>
</svg>